<svg width="129" height="35" viewBox="0 0 129 35" fill="none" xmlns="http://www.w3.org/2000/svg">
<path d="M52.208 20.4539C52.8331 19.8163 53.1456 18.9662 53.1456 17.9036C53.1456 16.841 52.8331 15.9972 52.208 15.3721C51.5955 14.747 50.8641 14.4345 50.014 14.4345C49.1639 14.4345 48.4264 14.7408 47.8013 15.3533C47.1887 15.9659 46.8825 16.8035 46.8825 17.8661C46.8825 18.9287 47.1887 19.7851 47.8013 20.4351C48.4264 21.0727 49.1639 21.3915 50.014 21.3915C50.8641 21.3915 51.5955 21.0789 52.208 20.4539ZM49.564 23.2479C48.1888 23.2479 47.0325 22.7479 46.0949 21.7478C45.1573 20.7352 44.6885 19.4475 44.6885 17.8849C44.6885 16.3097 45.151 15.0346 46.0761 14.0595C47.0137 13.0719 48.1763 12.5781 49.564 12.5781C50.3766 12.5781 51.0892 12.7656 51.7017 13.1406C52.3268 13.5031 52.8081 13.9844 53.1456 14.5845V9.2027H55.3021V23.0792H53.1456V21.1477C52.7956 21.7853 52.3143 22.2978 51.7017 22.6854C51.0892 23.0604 50.3766 23.2479 49.564 23.2479Z" fill="#303340"/>
<path d="M57.6411 15.7096C57.6411 14.8345 58.0099 14.097 58.7475 13.4969C59.4851 12.8843 60.4539 12.5781 61.654 12.5781C62.8542 12.5781 63.8043 12.8781 64.5043 13.4781C65.2169 14.0657 65.5982 14.872 65.6482 15.8972H63.4542C63.4167 15.3846 63.2354 14.9846 62.9104 14.697C62.5979 14.4095 62.1541 14.2657 61.579 14.2657C61.004 14.2657 60.5539 14.397 60.2289 14.6595C59.9038 14.9095 59.7413 15.2471 59.7413 15.6721C59.7413 16.0847 59.9476 16.4097 60.3601 16.6472C60.7727 16.8848 61.2727 17.0598 61.8603 17.1723C62.4604 17.2848 63.0542 17.4223 63.6417 17.5848C64.2418 17.7473 64.7481 18.0474 65.1607 18.4849C65.5732 18.91 65.7795 19.485 65.7795 20.2101C65.7795 21.1102 65.3982 21.8415 64.6356 22.4041C63.8855 22.9666 62.9167 23.2479 61.729 23.2479C60.5414 23.2479 59.5788 22.9604 58.8412 22.3853C58.1037 21.8103 57.6974 20.9914 57.6224 19.9288H59.8351C59.8726 20.4414 60.0601 20.8414 60.3976 21.129C60.7352 21.4165 61.1915 21.5602 61.7665 21.5602C62.3541 21.5602 62.8167 21.4352 63.1542 21.1852C63.5042 20.9227 63.6792 20.5789 63.6792 20.1538C63.6792 19.7288 63.473 19.3975 63.0604 19.16C62.6479 18.9225 62.1416 18.7475 61.5415 18.6349C60.954 18.5099 60.3601 18.3724 59.7601 18.2224C59.1725 18.0599 58.6725 17.7723 58.2599 17.3598C57.8474 16.9473 57.6411 16.3972 57.6411 15.7096Z" fill="#303340"/>
<path d="M73.1336 14.4908H70.6208V20.2101C70.6208 20.5976 70.7084 20.8789 70.8834 21.0539C71.0709 21.2165 71.3834 21.2977 71.821 21.2977H73.1336V23.0792H71.4459C69.4582 23.0792 68.4644 22.1228 68.4644 20.2101V14.4908H67.2455V12.7468H68.4644V10.1778H70.6208V12.7468H73.1336V14.4908Z" fill="#303340"/>
<path d="M81.9109 20.4539C82.5359 19.8163 82.8484 18.9662 82.8484 17.9036C82.8484 16.841 82.5359 15.9972 81.9109 15.3721C81.2983 14.747 80.567 14.4345 79.7169 14.4345C78.8668 14.4345 78.1292 14.7408 77.5041 15.3533C76.8916 15.9659 76.5853 16.8035 76.5853 17.8661C76.5853 18.9287 76.8916 19.7851 77.5041 20.4351C78.1292 21.0727 78.8668 21.3915 79.7169 21.3915C80.567 21.3915 81.2983 21.0789 81.9109 20.4539ZM79.2668 23.2479C77.8917 23.2479 76.7353 22.7479 75.7977 21.7478C74.8601 20.7352 74.3913 19.4475 74.3913 17.8849C74.3913 16.3097 74.8539 15.0346 75.779 14.0595C76.7166 13.0719 77.8792 12.5781 79.2668 12.5781C80.0794 12.5781 80.792 12.7656 81.4045 13.1406C82.0296 13.5031 82.5109 13.9844 82.8484 14.5845V12.7468H85.0049V23.0792H82.8484V21.1477C82.4984 21.7853 82.0171 22.2978 81.4045 22.6854C80.792 23.0604 80.0794 23.2479 79.2668 23.2479Z" fill="#303340"/>
<path d="M92.1632 23.2479C90.663 23.2479 89.4442 22.7604 88.5066 21.7853C87.569 20.8102 87.1002 19.5225 87.1002 17.9224C87.1002 16.3097 87.569 15.0158 88.5066 14.0407C89.4567 13.0656 90.6755 12.5781 92.1632 12.5781C93.4133 12.5781 94.4447 12.8781 95.2573 13.4781C96.0824 14.0657 96.6387 14.9095 96.9262 16.0097H94.6197C94.2322 14.922 93.4133 14.3782 92.1632 14.3782C91.2881 14.3782 90.588 14.6908 90.063 15.3158C89.5504 15.9284 89.2941 16.791 89.2941 17.9036C89.2941 19.0162 89.5504 19.8851 90.063 20.5101C90.588 21.1352 91.2881 21.4477 92.1632 21.4477C93.4008 21.4477 94.2197 20.9039 94.6197 19.8163H96.9262C96.6262 20.8664 96.0636 21.704 95.2385 22.3291C94.4134 22.9416 93.3883 23.2479 92.1632 23.2479Z" fill="#303340"/>
<path d="M101.194 23.0792H99.0566V9.2027H101.194V17.266L104.945 12.7468H107.908L103.145 17.9224L107.908 23.0792H105.02L101.194 18.6349V23.0792Z" fill="#303340"/>
<path d="M111.146 22.7229C110.896 22.9604 110.59 23.0792 110.227 23.0792C109.865 23.0792 109.559 22.9541 109.309 22.7041C109.071 22.4541 108.952 22.1541 108.952 21.804C108.952 21.4415 109.071 21.1352 109.309 20.8852C109.559 20.6351 109.865 20.5101 110.227 20.5101C110.59 20.5101 110.896 20.6351 111.146 20.8852C111.396 21.1352 111.521 21.4415 111.521 21.804C111.521 22.1666 111.396 22.4728 111.146 22.7229Z" fill="#303340"/>
<path d="M120.66 20.4539C121.285 19.8163 121.598 18.9662 121.598 17.9036C121.598 16.841 121.285 15.9972 120.66 15.3721C120.047 14.747 119.316 14.4345 118.466 14.4345C117.616 14.4345 116.878 14.7408 116.253 15.3533C115.641 15.9659 115.334 16.8035 115.334 17.8661C115.334 18.9287 115.641 19.7851 116.253 20.4351C116.878 21.0727 117.616 21.3915 118.466 21.3915C119.316 21.3915 120.047 21.0789 120.66 20.4539ZM118.016 23.2479C116.641 23.2479 115.485 22.7479 114.547 21.7478C113.609 20.7352 113.141 19.4475 113.141 17.8849C113.141 16.3097 113.603 15.0346 114.528 14.0595C115.466 13.0719 116.628 12.5781 118.016 12.5781C118.829 12.5781 119.541 12.7656 120.154 13.1406C120.779 13.5031 121.26 13.9844 121.598 14.5845V12.7468H123.754V23.0792H121.598V21.1477C121.248 21.7853 120.766 22.2978 120.154 22.6854C119.541 23.0604 118.829 23.2479 118.016 23.2479Z" fill="#303340"/>
<path d="M129 10.009C129 10.3966 128.868 10.7216 128.606 10.9841C128.343 11.2467 128.018 11.3779 127.631 11.3779C127.256 11.3779 126.937 11.2467 126.674 10.9841C126.412 10.7216 126.281 10.3966 126.281 10.009C126.281 9.62149 126.412 9.29646 126.674 9.03393C126.937 8.7714 127.256 8.64014 127.631 8.64014C128.018 8.64014 128.343 8.7714 128.606 9.03393C128.868 9.29646 129 9.62149 129 10.009ZM126.562 23.0792V12.7468H128.7V23.0792H126.562Z" fill="#303340"/>
<rect width="22.5627" height="21.381" rx="3" transform="matrix(0.845565 -0.533872 0.845565 0.533872 0 23.2046)" fill="url(#paint0_linear)"/>
<rect width="22.5627" height="21.381" rx="3" transform="matrix(0.845565 -0.533872 0.845565 0.533872 0 17.7349)" fill="url(#paint1_linear)" fill-opacity="0.9"/>
<rect width="22.5627" height="21.381" rx="3" transform="matrix(0.845565 -0.533872 0.845565 0.533872 0.0478516 12.0454)" fill="url(#paint2_linear)" fill-opacity="0.9"/>
<defs>
<linearGradient id="paint0_linear" x1="18.0148" y1="-1.80866" x2="1.89184" y2="19.7273" gradientUnits="userSpaceOnUse">
<stop stop-color="#372191"/>
<stop offset="1" stop-color="#9D8EF8"/>
</linearGradient>
<linearGradient id="paint1_linear" x1="17.9581" y1="-1.75193" x2="-0.97192" y2="16.1386" gradientUnits="userSpaceOnUse">
<stop stop-color="#7B369F"/>
<stop offset="1" stop-color="#DCAFF3"/>
</linearGradient>
<linearGradient id="paint2_linear" x1="13.0636" y1="2.65907" x2="-6.17645" y2="12.2264" gradientUnits="userSpaceOnUse">
<stop stop-color="#84D1EA"/>
<stop offset="1" stop-color="#DAF7FE"/>
</linearGradient>
</defs>
</svg>
