<svg enable-background="new 0 0 14 14" viewBox="0 0 14 14" xmlns="http://www.w3.org/2000/svg">
    <path
        d="m6.8 1.9c.4-.5.8-.8 1.2-.9s.8 0 1.2.2.7.5.8.8c.1.1.1.3.2.4.2 0 .4 0 .6.1.4.1.8.4 1.1.7.3.4.5.8.6 1.3v.7c.2.2.4.4.5.6.2.4.3.8.3 1.2s-.1.8-.4 1.2c-.2.2-.4.5-.7.7 0 .6-.2 1.2-.5 1.6-.3.5-.8.8-1.3.9-.1.4-.4.8-.8 1.1-.5.3-1.1.5-1.7.3-.4-.1-.8-.4-1.1-.9-.3.5-.7.8-1.2.9s-1.1-.1-1.5-.4c-.3-.3-.6-.6-.7-1.1-.2 0-.4 0-.5-.1-.4-.1-.8-.4-1.1-.7s-.5-.8-.6-1.2c0-.2 0-.5 0-.8-.1 0-.2-.2-.4-.4-.2-.4-.3-.8-.3-1.2s.1-.9.4-1.2c.2-.3.4-.5.7-.7 0-.1 0-.2 0-.2 0-.6.2-1.2.6-1.6.3-.4.8-.7 1.3-.7 0-.1 0-.1.1-.2.2-.4.5-.8.8-1 .4-.3.8-.4 1.3-.3.4.1.8.4 1.1.9zm3.4 1.4c-.1.2-.2.4-.4.7-.1.1-.4.1-.6 0s-.2-.4 0-.6c.3-.4.3-.7.1-1-.1-.2-.3-.4-.5-.5s-.4-.1-.6-.1c-.3.1-.6.3-.8.8v.1 8.3.1c.1.7.4 1 .8 1.1.3.1.7 0 1-.2s.5-.5.5-.8c0-.4-.3-.8-1-1.1-.2-.2-.3-.5-.2-.7s.3-.2.5-.1c.8.4 1.2.9 1.3 1.4.2-.1.5-.3.7-.5.2-.3.4-.8.3-1.3 0-.2 0-.4.2-.4.3-.3.5-.5.7-.7s.3-.5.3-.7-.1-.5-.2-.7-.3-.4-.5-.6c-.2-.1-.2-.3-.2-.5.1-.2.1-.4.1-.6 0-.3-.2-.6-.4-.8s-.4-.4-.7-.5c-.2-.1-.3-.1-.4-.1zm-6.7 7.4c.2-.5.6-1 1.4-1.4.2-.1.4 0 .5.2s0 .4-.2.5c-.7.4-1 .8-1 1.2 0 .3.2.6.4.8s.6.3.9.2c.4-.1.7-.4.9-1.2v-8c-.1-.8-.5-1.1-.9-1.2-.2 0-.5 0-.7.2-.2.1-.4.3-.5.5-.1.3 0 .7.3 1.1.2.2.2.4 0 .6s-.4.2-.6 0c-.2-.3-.4-.6-.5-.9-.2.1-.5.2-.7.4-.2.3-.3.7-.4 1.1v.4c0 .2 0 .3-.2.4-.2.2-.4.4-.6.6s-.3.5-.3.7c0 .3.1.5.2.7.2.3.3.4.5.6.1.1.2.3.2.5-.1.2-.1.4-.1.6 0 .3.2.6.4.8s.4.4.7.5c.1.1.2.1.3.1zm.1-5.7c.2-.1.4-.1.6 0 .2.2.2.4 0 .6-.4.3-.6.8-.6 1.2 0 .5.1.9.4 1.3.2.2.2.5 0 .6s-.4.1-.6-.1c-.4-.5-.6-1.2-.6-1.8 0-.7.3-1.3.8-1.8zm5.7.4c-.2-.1-.2-.4-.1-.6s.4-.2.6-.1c.1.1.1.2.2.2.5.5.8 1.1.9 1.7s-.1 1.3-.5 1.9c-.1.1-.1.2-.2.2-.1.2-.4.2-.6 0-.2-.1-.2-.4 0-.6 0-.1.1-.1.1-.2.3-.4.4-.9.4-1.3s-.2-.9-.6-1.2c-.1.1-.1 0-.2 0z"/>
</svg>
