<svg width="224" height="77" viewBox="0 0 224 77" fill="none" xmlns="http://www.w3.org/2000/svg">
    <path d="M36.888 47.5319V21.2439L20.14 47.5319H36.888ZM35.616 76.9999V63.2199H0V48.5919L33.496 0.679932H53.742V47.5319H62.434V63.2199H53.742V76.9999H35.616Z" fill="#B4B8C7" fill-opacity="0.6"/>
    <path d="M197.773 47.5319V21.2439L181.025 47.5319H197.773ZM196.501 76.9999V63.2199H160.885V48.5919L194.381 0.679932H214.627V47.5319H223.319V63.2199H214.627V76.9999H196.501Z" fill="#B4B8C7" fill-opacity="0.6"/>
    <path d="M150.806 39C150.806 59.9868 133.792 77 112.806 77C91.8188 77 74.8057 59.9868 74.8057 39C74.8057 18.0132 91.8188 1 112.806 1C133.792 1 150.806 18.0132 150.806 39ZM90.7581 39C90.7581 51.1766 100.629 61.0476 112.806 61.0476C124.982 61.0476 134.853 51.1766 134.853 39C134.853 26.8234 124.982 16.9524 112.806 16.9524C100.629 16.9524 90.7581 26.8234 90.7581 39Z" fill="#89C6FF"/>
    <path d="M150.806 39C150.806 47.7212 147.806 56.1771 142.309 62.9484C136.813 69.7197 129.155 74.3943 120.62 76.1878L117.34 60.5764C122.292 59.5358 126.735 56.8236 129.924 52.8948C133.113 48.9661 134.853 44.0601 134.853 39H150.806Z" fill="#D294F2"/>
    <path d="M122.552 75.7289C115.974 77.4744 109.048 77.4213 102.497 75.5751C95.9471 73.729 90.0127 70.1576 85.3143 65.2341C80.616 60.3105 77.3261 54.2156 75.7884 47.586C74.2507 40.9564 74.5216 34.0355 76.5729 27.5464L91.7906 32.3569C90.6009 36.1206 90.4438 40.1347 91.3356 43.9799C92.2275 47.825 94.1356 51.3601 96.8607 54.2158C99.5857 57.0714 103.028 59.1428 106.827 60.2136C110.626 61.2843 114.643 61.3151 118.458 60.3028L122.552 75.7289Z" fill="#CDF27E"/>
</svg>