<svg width="20" height="20" viewBox="0 0 20 20" fill="none" xmlns="http://www.w3.org/2000/svg">
<g clip-path="url(#clip0)" fill="#86A6DD">
<path d="M7.85714 0H0.714286C0.319481 0 0 0.319481 0 0.714286V7.85714C0 8.25195 0.319481 8.57143 0.714286 8.57143H7.85714C8.25195 8.57143 8.57143 8.25195 8.57143 7.85714V5.71429V0.714286C8.57143 0.319481 8.25195 0 7.85714 0ZM7.14286 7.14286H1.42857V1.42857H7.14286V7.14286Z" />
<path d="M7.85714 11.4286H0.714286C0.319481 11.4286 0 11.7481 0 12.1429V19.2857C0 19.6805 0.319481 20 0.714286 20H7.85714C8.25195 20 8.57143 19.6805 8.57143 19.2857V12.1429C8.57143 11.7481 8.25195 11.4286 7.85714 11.4286ZM7.14286 18.5714H1.42857V12.8572H7.14286V18.5714Z" />
<path d="M19.2858 11.4286H14.2859H12.143C11.7482 11.4286 11.4287 11.7481 11.4287 12.1429V19.2857C11.4287 19.6805 11.7482 20 12.143 20H19.2858C19.6807 20 20.0001 19.6805 20.0001 19.2857V12.1429C20.0001 11.7481 19.6807 11.4286 19.2858 11.4286ZM18.5716 18.5714H12.8573V12.8572H18.5716V18.5714Z" />
<path d="M19.7906 6.2193C20.0696 5.94029 20.0696 5.48826 19.7906 5.20925L14.7906 0.209253C14.5116 -0.0697511 14.0596 -0.0697511 13.7806 0.209253L8.78055 5.20925C8.64103 5.34878 8.57129 5.5315 8.57129 5.71427C8.57129 5.89705 8.64103 6.07977 8.78055 6.2193L13.7806 11.2193C13.9201 11.3588 14.1028 11.4286 14.2856 11.4286C14.4683 11.4286 14.6511 11.3588 14.7906 11.2193L19.7906 6.2193ZM10.2956 5.71427L14.2856 1.72432L18.2755 5.71427L14.2856 9.70423L10.2956 5.71427Z" />
</g>
<defs>
<clipPath id="clip0">
<rect width="20" height="20" fill="none"/>
</clipPath>
</defs>
</svg>
