<svg width="20" height="20" viewBox="0 0 20 20" fill="none" xmlns="http://www.w3.org/2000/svg">
<path fill="#86A6DD" d="M18.7973 6.34014C19.1956 4.37304 17.7997 2.5234 15.8526 2.31416C14.835 -0.0882253 11.5502 -0.491545 10.0006 1.67129C8.45171 -0.490718 5.16683 -0.0893681 4.1487 2.31416C2.2004 2.52356 0.805978 4.37438 1.20402 6.34014C-0.247263 7.55629 -0.397282 9.72369 0.822883 11.1291C-1.19864 13.8515 0.722752 17.8194 4.21018 17.8194C5.32379 20.1425 8.50317 20.418 10.0006 18.3279C11.4992 20.4197 14.6785 20.1403 15.791 17.8194C19.2697 17.8271 21.2004 13.8522 19.1783 11.1291C20.4001 9.72192 20.2467 7.55479 18.7973 6.34014ZM7.17618 18.4612C5.4143 18.4612 4.39767 16.3911 5.54572 15.0019C5.76758 14.7334 5.72979 14.3361 5.46135 14.1142C5.19292 13.8924 4.79555 13.9302 4.57373 14.1986C4.04365 14.84 3.7615 15.6707 3.80607 16.5216C1.41539 16.2675 0.350564 13.4091 1.93094 11.647C1.94824 11.6665 2.54098 10.8192 3.80567 10.6845C3.78487 11.0929 3.83822 11.5058 3.96909 11.9061C4.05602 12.172 4.3029 12.3408 4.56826 12.3408C4.99546 12.3408 5.30117 11.9226 5.16766 11.5143C4.80552 10.4064 5.41217 9.21035 6.52007 8.84821C6.85104 8.74 7.03164 8.38401 6.92343 8.053C6.81522 7.72199 6.45935 7.54127 6.12822 7.64964C5.98391 7.69681 5.84461 7.75371 5.71004 7.81834C5.45883 7.17507 5.63214 6.41521 6.19225 5.95109C6.46037 5.72888 6.49761 5.33143 6.27544 5.06331C6.05327 4.79519 5.65578 4.75799 5.38766 4.98012C4.29569 5.885 4.04302 7.40607 4.67785 8.58856C4.25258 9.0584 4.15383 9.40671 4.11828 9.40671C3.19287 9.40671 2.33658 9.70797 1.64201 10.2174C0.868239 9.24861 1.08864 7.78866 2.18065 7.10765C2.43222 6.95077 2.54051 6.63982 2.44077 6.36059C1.97759 5.06355 2.85122 3.53799 4.52357 3.53799C4.80859 3.53799 5.05945 3.34612 5.13287 3.06894C5.37785 2.14392 6.21806 1.4979 7.17614 1.4979C8.34173 1.4979 9.29003 2.44617 9.29003 3.61179V16.3474C9.29003 17.513 8.34177 18.4612 7.17618 18.4612ZM18.199 10.2174C17.447 9.66592 16.535 9.39197 15.7105 9.40734C15.5676 9.10785 15.3912 8.84056 15.1632 8.58856C15.7975 7.40702 15.5463 5.88579 14.4533 4.98012C14.1851 4.75795 13.7877 4.79519 13.5656 5.06331C13.3434 5.33147 13.3807 5.72892 13.6488 5.95109C14.2089 6.41517 14.3822 7.17507 14.131 7.81834C13.9964 7.75371 13.8571 7.69681 13.7128 7.64964C13.3818 7.54135 13.0258 7.72203 12.9176 8.053C12.8094 8.38397 12.99 8.74 13.3209 8.84821C14.4288 9.21035 15.0355 10.4064 14.6734 11.5143C14.5651 11.8452 14.7457 12.2013 15.0767 12.3095C15.4059 12.4171 15.7632 12.2388 15.8719 11.9061C16.0028 11.5057 16.0562 11.0928 16.0353 10.6844C17.5168 10.8423 18.658 12.102 18.658 13.603C18.658 15.116 17.5072 16.3651 16.0349 16.5215C16.0795 15.6739 15.7995 14.8424 15.2673 14.1985C15.0455 13.9301 14.6481 13.8924 14.3797 14.1141C14.1113 14.336 14.0735 14.7334 14.2953 15.0018C15.4413 16.3885 14.4276 18.4612 12.6649 18.4612C11.4993 18.4612 10.551 17.5129 10.551 16.3473V3.61179C10.551 2.44621 11.4992 1.4979 12.6649 1.4979C13.6229 1.4979 14.4632 2.14396 14.7081 3.06894C14.7834 3.3529 15.0437 3.54796 15.3383 3.53767C16.8151 3.48337 17.9037 4.95092 17.4002 6.36063C17.3005 6.63986 17.4088 6.95081 17.6604 7.10769C18.7535 7.78937 18.9719 9.24979 18.199 10.2174Z"/>
</svg>
