<svg enable-background="new 0 0 874.3 569" viewBox="0 0 874.3 569" xmlns="http://www.w3.org/2000/svg" xmlns:xlink="http://www.w3.org/1999/xlink"><linearGradient id="a" gradientUnits="userSpaceOnUse" x1="588.8353" x2="587.8353" y1="484.5287" y2="348.0287"><stop offset="0" stop-color="#4063bc"/><stop offset="1" stop-color="#54cbff"/></linearGradient><linearGradient id="b"><stop offset="0" stop-color="#776bff"/><stop offset="1" stop-color="#54ccff"/></linearGradient><linearGradient id="c" gradientUnits="userSpaceOnUse" x1="241.7646" x2="111.2965" xlink:href="#b" y1="111.221" y2="309.33"/><linearGradient id="d" gradientUnits="userSpaceOnUse" x1="93.9063" x2="62.7333" xlink:href="#b" y1="412.7331" y2="460.0691"/><linearGradient id="e" gradientUnits="userSpaceOnUse" x1="192.0359" x2="160.862" xlink:href="#b" y1="408.369" y2="455.705"/><linearGradient id="f" gradientUnits="userSpaceOnUse" x1="304.4308" x2="273.2568" xlink:href="#b" y1="413.3602" y2="460.6962"/><linearGradient id="g" gradientUnits="userSpaceOnUse" x1="177.3369" x2="177.3369" y1="119.8033" y2="324.8283"><stop offset="0" stop-color="#bb77df"/><stop offset=".4896" stop-color="#d77be6"/><stop offset="1" stop-color="#fdc14d"/></linearGradient><path d="m15 0h844.3c8.3 0 15 6.7 15 15v539c0 8.3-6.7 15-15 15h-844.3c-8.3 0-15-6.7-15-15v-539c0-8.3 6.7-15 15-15z" fill="#fff"/><path d="m0 39h874v510c0 11-9 20-20 20h-834c-11 0-20-9-20-20z" fill="#86a6dd" opacity=".1"/><path d="m388 82h436c5.5 0 10 4.5 10 10v425c0 5.5-4.5 10-10 10h-436c-5.5 0-10-4.5-10-10v-425c0-5.5 4.5-10 10-10z" fill="#86a6dd" opacity=".1"/><path d="m411 474 45.1-91.7c5.1-10.4 20-10.6 25.3-.2l4.6 9.1c2.2 4.3 8 5.1 11.3 1.6 3.4-3.7 9.5-2.6 11.5 2l1.4 3.1c2.9 6.7 12.2 7.5 16.2 1.3l10.8-16.7c6.7-10.4 22.5-8.6 26.7 3l14.3 39.3c2.5 7 11.9 8.4 16.3 2.4 4.4-5.9 13.6-4.7 16.2 2.2l10.3 26.6c2.6 6.7 12 6.9 14.9.3 2.7-6.2 11.3-6.5 14.5-.6l7.9 14.9c3.5 6.6 12.8 7 16.9.8l2.8-4.2c2.4-3.7 7.8-3.8 10.4-.2 2.5 3.5 7.8 3.5 10.3 0l8.5-12c4.4-6.1 13.7-5.2 16.9 1.6 3.3 7.3 13.5 7.7 17.4.7l24.6-43.7" fill="none" stroke="url(#a)" stroke-width="2"/><path d="m414.4 192.4h15.6c1.1 0 2 .9 2 2v99.6c0 1.1-.9 2-2 2h-15.6c-1.1 0-2-.9-2-2v-99.7c0-1.1.8-1.9 2-1.9z" fill="#bb77df"/><path d="m414.4 124.4h15.6c1.1 0 2 .9 2 2v59.4c0 1.1-.9 2-2 2h-15.6c-1.1 0-2-.9-2-2v-59.4c0-1.1.8-2 2-2z" fill="#fff"/><path d="m455.8 209.6h14.4c1.1 0 2 .9 2 2v82.4c0 1.1-.9 2-2 2h-14.4c-1.1 0-2-.9-2-2v-82.4c0-1.1.9-2 2-2z" fill="#bb77df"/><path d="m455.8 153.2h14.4c1.1 0 2 .9 2 2v47.8c0 1.1-.9 2-2 2h-14.4c-1.1 0-2-.9-2-2v-47.8c0-1.1.9-2 2-2z" fill="#fff"/><path d="m496.1 226.9h15.6c1.1 0 2 .9 2 2v65.1c0 1.1-.9 2-2 2h-15.6c-1.1 0-2-.9-2-2v-65.1c0-1.1.9-2 2-2z" fill="#bb77df"/><path d="m496.1 179.7h15.6c1.1 0 2 .9 2 2v38.6c0 1.1-.9 2-2 2h-15.6c-1.1 0-2-.9-2-2v-38.6c0-1.1.9-2 2-2z" fill="#fff"/><path d="m537.6 209.6h14.4c1.1 0 2 .9 2 2v82.4c0 1.1-.9 2-2 2h-14.4c-1.1 0-2-.9-2-2v-82.4c0-1.1.9-2 2-2z" fill="#bb77df"/><path d="m537.6 153.2h14.4c1.1 0 2 .9 2 2v47.8c0 1.1-.9 2-2 2h-14.4c-1.1 0-2-.9-2-2v-47.8c0-1.1.9-2 2-2z" fill="#fff"/><path d="m577.9 233.8h14.4c1.1 0 2 .9 2 2v58.2c0 1.1-.9 2-2 2h-14.4c-1.1 0-2-.9-2-2v-58.2c0-1.1.9-2 2-2z" fill="#bb77df"/><path d="m577.9 168.2h14.4c1.1 0 2 .9 2 2v57c0 1.1-.9 2-2 2h-14.4c-1.1 0-2-.9-2-2v-57c0-1.1.9-2 2-2z" fill="#fff"/><path d="m613.6 192.4h15.6c1.1 0 2 .9 2 2v99.6c0 1.1-.9 2-2 2h-15.6c-1.1 0-2-.9-2-2v-99.7c0-1.1.9-1.9 2-1.9z" fill="#bb77df"/><path d="m613.6 124.4h15.6c1.1 0 2 .9 2 2v59.4c0 1.1-.9 2-2 2h-15.6c-1.1 0-2-.9-2-2v-59.4c0-1.1.9-2 2-2z" fill="#fff"/><path d="m655.1 209.6h14.4c1.1 0 2 .9 2 2v82.4c0 1.1-.9 2-2 2h-14.4c-1.1 0-2-.9-2-2v-82.4c0-1.1.9-2 2-2z" fill="#bb77df"/><path d="m655.1 153.2h14.4c1.1 0 2 .9 2 2v47.8c0 1.1-.9 2-2 2h-14.4c-1.1 0-2-.9-2-2v-47.8c0-1.1.9-2 2-2z" fill="#fff"/><path d="m695.4 226.9h15.6c1.1 0 2 .9 2 2v65.1c0 1.1-.9 2-2 2h-15.6c-1.1 0-2-.9-2-2v-65.1c0-1.1.9-2 2-2z" fill="#bb77df"/><path d="m695.4 179.7h15.6c1.1 0 2 .9 2 2v38.6c0 1.1-.9 2-2 2h-15.6c-1.1 0-2-.9-2-2v-38.6c0-1.1.9-2 2-2z" fill="#fff"/><path d="m736.9 209.6h14.4c1.1 0 2 .9 2 2v82.4c0 1.1-.9 2-2 2h-14.4c-1.1 0-2-.9-2-2v-82.4c0-1.1.9-2 2-2z" fill="#bb77df"/><path d="m736.9 153.2h14.4c1.1 0 2 .9 2 2v47.8c0 1.1-.9 2-2 2h-14.4c-1.1 0-2-.9-2-2v-47.8c0-1.1.9-2 2-2z" fill="#fff"/><path d="m301.8 223.5c3.8 0 6.9-3.1 6.7-6.9-1.4-26.1-10.6-51.2-26.5-72-17.3-22.7-41.5-39-69-46.6s-56.7-5.9-83.2 4.8c-26.4 10.7-48.7 29.7-63.2 54.2-14.6 24.5-20.7 53.1-17.4 81.5 3.3 28.3 15.8 54.8 35.6 75.3s45.8 34 73.9 38.3c25.9 4 52.4 0 75.9-11.2 3.4-1.6 4.6-5.8 2.8-9.2-1.8-3.3-6-4.5-9.4-2.9-20.9 9.8-44.3 13.2-67.3 9.7-25.2-3.9-48.4-15.9-66.1-34.3s-28.9-42-31.8-67.4c-2.9-25.3 2.5-50.9 15.6-72.9 13-21.9 32.9-39 56.5-48.5 23.7-9.5 49.8-11 74.4-4.3 24.6 6.8 46.3 21.4 61.7 41.7 14.1 18.5 22.3 40.6 23.6 63.7.4 3.9 3.4 7 7.2 7z" fill="url(#c)"/><path d="m93.4 462.9c1.2 2 3.9 2.7 5.7 1.2 2.2-1.8 4.2-4 5.9-6.4 2.5-3.6 4.2-7.6 5-11.9s.7-8.7-.2-12.9c-.7-2.8-1.7-5.6-3.1-8.1-1.2-2.1-3.9-2.4-5.8-1s-2.2 4.1-1.2 6.2c.7 1.5 1.3 3.1 1.7 4.8.7 3.1.8 6.2.2 9.3s-1.8 6-3.6 8.6c-1 1.4-2.1 2.7-3.4 3.8-1.7 1.8-2.4 4.4-1.2 6.4z" fill="#bb77df"/><path d="m99.9 422.7c1.8-1.5 2-4.3.3-5.8-3.2-2.9-7.1-5.1-11.3-6.4-5.5-1.8-11.5-2-17.1-.5-5.6 1.4-10.8 4.4-14.8 8.6s-6.8 9.5-8 15.2-.8 11.6 1.2 17.1 5.5 10.3 10.1 13.8c4.6 3.6 10.1 5.8 15.9 6.4 4.4.5 8.8 0 12.9-1.4 2.2-.7 3.1-3.3 2.1-5.5-1-2.1-3.6-3-5.9-2.3-2.7.7-5.4 1-8.2.7-4.2-.4-8.2-2-11.5-4.6s-5.9-6.1-7.3-10c-1.5-4-1.8-8.2-.9-12.4.9-4.1 2.9-7.9 5.8-11 2.9-3 6.6-5.2 10.7-6.2s8.4-.9 12.4.4c2.6.8 5.1 2.2 7.3 3.9 1.8 1.2 4.5 1.5 6.3 0z" fill="url(#d)"/><path d="m179.6 466.5c-.4 2.3 1.1 4.6 3.5 4.7 4.8.2 9.5-.7 13.9-2.6 5.7-2.5 10.5-6.7 13.8-12s4.9-11.5 4.6-17.7c-.2-4.8-1.5-9.5-3.8-13.7-1.1-2.1-3.9-2.5-5.8-1-1.9 1.4-2.2 4.1-1.2 6.2 1.3 2.8 2.1 5.8 2.2 8.8.2 4.5-1 9-3.4 12.8s-5.9 6.9-10 8.7c-2.8 1.3-5.9 1.9-8.9 1.9-2.2.1-4.5 1.6-4.9 3.9z" fill="#bb77df"/><path d="m204.9 422.8c1.8-1.5 2-4.3.3-5.8-2.6-2.3-5.5-4.1-8.6-5.5-4.5-1.9-9.4-2.7-14.2-2.4s-9.6 1.8-13.8 4.3-7.7 5.9-10.3 10.1c-2.6 4.1-4.2 8.8-4.7 13.6-.5 4.9.2 9.8 2 14.3s4.6 8.6 8.2 11.9c2.6 2.3 5.5 4.1 8.6 5.5 2.2.9 4.5-.5 5.2-2.7s-.8-4.6-2.9-5.6c-1.9-.9-3.6-2.1-5.2-3.5-2.6-2.4-4.7-5.3-6-8.6s-1.8-6.8-1.4-10.4 1.5-6.9 3.4-9.9 4.5-5.5 7.5-7.3 6.5-2.9 10-3.1 7.1.3 10.3 1.7c1.9.8 3.7 1.9 5.4 3.2 1.7 1.4 4.4 1.7 6.2.2z" fill="url(#e)"/><path d="m303.2 463c1.2 2 3.9 2.7 5.7 1.2 2-1.7 3.9-3.6 5.4-5.7 1.6-2.1 2.8-4.5 3.8-6.9.9-2.2-.6-4.5-2.9-5.1s-4.6.9-5.6 3c-.6 1.4-1.4 2.7-2.3 3.9s-1.9 2.4-3 3.4c-1.7 1.6-2.4 4.2-1.1 6.2z" fill="#bb77df"/><path d="m315.7 444.6c2.3.4 4.6-1.2 4.6-3.6.2-5.5-1.2-11-3.9-15.9-3.4-6.2-8.8-11-15.3-13.7s-13.7-3.1-20.5-1.2-12.6 6.1-16.6 11.8c-4.1 5.7-6.1 12.6-5.8 19.7.3 7 3.1 13.7 7.7 19s10.9 8.8 17.8 10.1c5.5 1 11.1.5 16.3-1.4 2.2-.8 3-3.5 1.9-5.5s-3.7-2.8-6-2.1c-3.4 1.1-7.1 1.3-10.7.7-5-.9-9.6-3.5-12.9-7.3-3.4-3.8-5.3-8.7-5.6-13.8s1.2-10.1 4.2-14.2 7.2-7.1 12.1-8.5 10.1-1.1 14.8.9 8.6 5.4 11.1 9.9c1.8 3.2 2.7 6.8 2.8 10.4.1 2 1.6 4.3 4 4.7z" fill="url(#f)"/><path d="m273.3 222.3c3.7 0 6.7-3 6.4-6.6-1.1-17.2-6.5-33.9-15.8-48.5-10.5-16.5-25.5-29.6-43.1-37.8s-37.4-11.3-56.7-8.7-37.6 10.6-52.5 23.1c-14.9 12.6-26 29.1-31.9 47.7s-6.3 38.5-1.2 57.4c5.1 18.8 15.4 35.9 29.8 49 12.8 11.7 28.2 19.9 45 24 3.6.9 7-1.6 7.6-5.2s-1.8-7-5.3-7.9c-14.3-3.6-27.4-10.7-38.3-20.7-12.5-11.5-21.5-26.3-25.9-42.7s-4-33.7 1.1-49.9 14.5-30.6 27.5-41.5 28.9-17.9 45.7-20.1 34 .4 49.4 7.6 28.4 18.6 37.6 32.9c7.9 12.5 12.6 26.7 13.7 41.3.2 3.6 3.2 6.6 6.9 6.6z" fill="#bb77df"/><path d="m273.3 222.3c3.7 0 6.7-3 6.4-6.6-1.1-17.2-6.5-33.9-15.8-48.5-10.5-16.5-25.5-29.6-43.1-37.8s-37.4-11.3-56.7-8.7-37.6 10.6-52.5 23.1c-14.9 12.6-26 29.1-31.9 47.7s-6.3 38.5-1.2 57.4c5.1 18.8 15.4 35.9 29.8 49 12.8 11.7 28.2 19.9 45 24 3.6.9 7-1.6 7.6-5.2s-1.8-7-5.3-7.9c-14.3-3.6-27.4-10.7-38.3-20.7-12.5-11.5-21.5-26.3-25.9-42.7s-4-33.7 1.1-49.9 14.5-30.6 27.5-41.5 28.9-17.9 45.7-20.1 34 .4 49.4 7.6 28.4 18.6 37.6 32.9c7.9 12.5 12.6 26.7 13.7 41.3.2 3.6 3.2 6.6 6.9 6.6z" fill="url(#g)"/><g fill="#86a6dd"><path d="m47.8 490h63.4c2.2 0 4 1.8 4 4v8.1c0 2.2-1.8 4-4 4h-63.4c-2.2 0-4-1.8-4-4v-8.1c0-2.2 1.8-4 4-4z" opacity=".16"/><path d="m152.6 490h63.4c2.2 0 4 1.8 4 4v8.1c0 2.2-1.8 4-4 4h-63.4c-2.2 0-4-1.8-4-4v-8.1c0-2.2 1.8-4 4-4z" opacity=".16"/><path d="m257.4 490h63.4c2.2 0 4 1.8 4 4v8.1c0 2.2-1.8 4-4 4h-63.4c-2.2 0-4-1.8-4-4v-8.1c0-2.2 1.8-4 4-4z" opacity=".16"/></g><circle cx="38" cy="19" fill="#f9d65a" r="8"/><circle cx="62" cy="19" fill="#f17693" r="8"/><circle cx="86" cy="19" fill="#83eebb" r="8"/><circle cx="549" cy="376" fill="#54caff" r="4"/></svg>